<?xml version="1.0" encoding="UTF-8"?>
<svg width="700pt" height="700pt" version="1.1" viewBox="0 0 700 700" xmlns="http://www.w3.org/2000/svg">
 <g>
  <path fill="#e3dac9" d="m490 46.668h-280c-24.746 0.027343-48.469 9.8672-65.965 27.367-17.5 17.496-27.34 41.219-27.367 65.965v280c0.027343 24.746 9.8672 48.469 27.367 65.965 17.496 17.5 41.219 27.34 65.965 27.367h280c24.746-0.023437 48.469-9.8672 65.969-27.363 17.496-17.5 27.34-41.223 27.363-65.969v-280c-0.023437-24.746-9.8672-48.469-27.363-65.969-17.5-17.496-41.223-27.34-65.969-27.363zm46.668 373.33c-0.015625 12.371-4.9375 24.234-13.684 32.984-8.75 8.7461-20.613 13.668-32.984 13.684h-280c-12.371-0.011719-24.234-4.9336-32.984-13.684s-13.672-20.613-13.684-32.984v-280c0.011719-12.371 4.9336-24.234 13.684-32.984s20.613-13.672 32.984-13.684h280c12.371 0.015625 24.234 4.9375 32.984 13.684 8.7461 8.75 13.668 20.613 13.684 32.984z"/>
  <path fill="#e3dac9" d="m350 175.9c-27.609 0-54.086 10.973-73.605 30.496-19.52 19.523-30.484 46-30.48 73.609 0 27.609 10.969 54.086 30.492 73.605s46 30.488 73.609 30.484c27.609 0 54.086-10.969 73.605-30.488 19.523-19.523 30.488-46 30.488-73.609-0.03125-27.602-11.008-54.062-30.527-73.578s-45.98-30.492-73.582-30.52zm0 161.53c-15.23-0.003906-29.836-6.0586-40.605-16.828-10.77-10.773-16.816-25.383-16.816-40.613 0.003906-15.23 6.0547-29.84 16.828-40.605 10.77-10.77 25.379-16.82 40.609-16.82 15.23 0.003906 29.84 6.0547 40.609 16.824s16.82 25.379 16.82 40.609c-0.015624 15.23-6.0742 29.828-16.844 40.598-10.77 10.766-25.371 16.82-40.602 16.836z"/>
 </g>
</svg>
